<svg width="256" height="256" viewBox="0 0 464 464" fill="none" xmlns="http://www.w3.org/2000/svg">
<g filter="url(#filter0_d_104_14)">
<rect width="465" height="465" rx="120" fill="#8311FA"/>
<g filter="url(#filter1_i_104_14)">
<path d="M250.717 341C305.18 341 338 314.32 338 270.314C338 237.05 314.583 212.968 279.811 209.157L279.811 207.771C305.358 203.613 325.404 179.877 325.404 153.37C325.404 115.602 295.6 91 250.185 91L149.753 91C148.785 91 148 91.7849 148 92.7532L148 339.247C148 340.215 148.785 341 149.753 341L250.717 341ZM187.739 122.705L240.605 122.705C269.345 122.705 285.666 135.525 285.666 158.741C285.666 183.516 266.683 197.376 232.267 197.376L187.739 197.376L187.739 122.705ZM187.739 309.295L187.739 227.001L240.25 227.001C277.86 227.001 297.374 240.861 297.374 267.888C297.374 294.915 278.392 309.295 242.556 309.295L187.739 309.295Z" fill="white"/>
</g>
</g>
<defs>
<filter id="filter0_d_104_14" x="0" y="0" width="464" height="464" filterUnits="userSpaceOnUse" color-interpolation-filters="sRGB">
<feFlood flood-opacity="0" result="BackgroundImageFix"/>
<feColorMatrix in="SourceAlpha" type="matrix" values="0 0 0 0 0 0 0 0 0 0 0 0 0 0 0 0 0 0 127 0" result="hardAlpha"/>
<feOffset dy="16"/>
<feGaussianBlur stdDeviation="16"/>
<feComposite in2="hardAlpha" operator="out"/>
<feColorMatrix type="matrix" values="0 0 0 0 0.513726 0 0 0 0 0.0666667 0 0 0 0 0.980392 0 0 0 0.15 0"/>
<feBlend mode="normal" in2="BackgroundImageFix" result="effect1_dropShadow_104_14"/>
<feBlend mode="normal" in="SourceGraphic" in2="effect1_dropShadow_104_14" result="shape"/>
</filter>
<filter id="filter1_i_104_14" x="148" y="91" width="190" height="265.385" filterUnits="userSpaceOnUse" color-interpolation-filters="sRGB">
<feFlood flood-opacity="0" result="BackgroundImageFix"/>
<feBlend mode="normal" in="SourceGraphic" in2="BackgroundImageFix" result="shape"/>
<feColorMatrix in="SourceAlpha" type="matrix" values="0 0 0 0 0 0 0 0 0 0 0 0 0 0 0 0 0 0 127 0" result="hardAlpha"/>
<feOffset dy="15.3846"/>
<feGaussianBlur stdDeviation="15.3846"/>
<feComposite in2="hardAlpha" operator="arithmetic" k2="-1" k3="1"/>
<feColorMatrix type="matrix" values="0 0 0 0 0.513726 0 0 0 0 0.0666667 0 0 0 0 0.980392 0 0 0 0.15 0"/>
<feBlend mode="normal" in2="shape" result="effect1_innerShadow_104_14"/>
</filter>
</defs>
</svg>
